<svg width="400" height="400" viewBox="0 0 400 400" fill="none" xmlns="http://www.w3.org/2000/svg">
<g clip-path="url(#clip0_3_3630)">
<mask id="mask0_3_3630" style="mask-type:luminance" maskUnits="userSpaceOnUse" x="0" y="0" width="400" height="400">
<path d="M400 0H0V400H400V0Z" fill="white"/>
</mask>
<g mask="url(#mask0_3_3630)">
<g opacity="0.3">
<path d="M205.286 58.3914C283.44 58.3914 346.895 121.846 346.895 200C346.895 278.154 283.44 341.609 205.286 341.609C127.133 341.609 63.6777 278.154 63.6777 200C63.6777 121.846 127.133 58.3914 205.286 58.3914Z" fill="#FFF6EB"/>
<path d="M205.286 58.3914C283.44 58.3914 346.895 121.846 346.895 200C346.895 278.154 283.44 341.609 205.286 341.609C127.133 341.609 63.6777 278.154 63.6777 200C63.6777 121.846 127.133 58.3914 205.286 58.3914Z" stroke="#FF9B06" stroke-width="2.577" stroke-miterlimit="10"/>
</g>
<path d="M97.3681 63.2726C104.448 63.2726 110.197 69.0213 110.197 76.1016C110.197 83.1819 104.448 88.9306 97.3681 88.9306C90.2877 88.9306 84.5391 83.1819 84.5391 76.1016C84.5391 69.0213 90.2877 63.2726 97.3681 63.2726Z" fill="url(#paint0_linear_3_3630)"/>
<path d="M106.164 190.022C108.39 190.022 110.197 191.83 110.197 194.056C110.197 196.282 108.39 198.089 106.164 198.089C103.938 198.089 102.131 196.282 102.131 194.056C102.131 191.83 103.938 190.022 106.164 190.022Z" fill="url(#paint1_linear_3_3630)"/>
<path d="M299.498 88.9308C303.975 88.9308 307.61 92.5661 307.61 97.0436C307.61 101.521 303.975 105.156 299.498 105.156C295.02 105.156 291.385 101.521 291.385 97.0436C291.385 92.5661 295.02 88.9308 299.498 88.9308Z" fill="url(#paint2_linear_3_3630)"/>
<path d="M322.732 298.723C327.586 298.723 331.528 302.665 331.528 307.519C331.528 312.373 327.586 316.314 322.732 316.314C317.878 316.314 313.937 312.373 313.937 307.519C313.937 302.665 317.878 298.723 322.732 298.723Z" fill="url(#paint3_linear_3_3630)"/>
<path d="M58.0599 261.578C60.7942 261.578 63.0143 263.798 63.0143 266.532C63.0143 269.266 60.7942 271.486 58.0599 271.486C55.3255 271.486 53.1055 269.266 53.1055 266.532C53.1055 263.798 55.3255 261.578 58.0599 261.578Z" fill="url(#paint4_linear_3_3630)"/>
<path d="M250.941 261.998H159.236C150.816 261.998 143.989 255.172 143.989 246.751V170.321C143.989 161.9 150.816 155.074 159.236 155.074H250.941C259.362 155.074 266.188 161.9 266.188 170.321V246.751C266.188 255.172 259.362 261.998 250.941 261.998Z" fill="url(#paint5_linear_3_3630)"/>
<path d="M236.828 155.074V139.976C236.828 122.604 222.746 108.522 205.374 108.522C188.002 108.522 173.92 122.604 173.92 139.976V155.074" stroke="url(#paint6_linear_3_3630)" stroke-width="33.505" stroke-miterlimit="10"/>
<g opacity="0.5">
<path d="M240.602 219.629C236.402 219.629 232.965 216.192 232.965 211.991C232.965 207.79 236.402 204.354 240.602 204.354C244.803 204.354 248.24 207.79 248.24 211.991C248.24 216.192 244.803 219.629 240.602 219.629Z" fill="white"/>
<path d="M216.927 219.629C212.726 219.629 209.289 216.192 209.289 211.991C209.289 207.79 212.726 204.354 216.927 204.354C221.127 204.354 224.564 207.79 224.564 211.991C224.564 216.192 221.127 219.629 216.927 219.629Z" fill="white"/>
<path d="M193.251 219.629C189.05 219.629 185.613 216.192 185.613 211.991C185.613 207.79 189.05 204.354 193.251 204.354C197.452 204.354 200.888 207.79 200.888 211.991C200.888 216.192 197.452 219.629 193.251 219.629Z" fill="white"/>
<path d="M169.574 219.629C165.373 219.629 161.937 216.192 161.937 211.991C161.937 207.79 165.373 204.354 169.574 204.354C173.775 204.354 177.212 207.79 177.212 211.991C177.212 216.192 173.775 219.629 169.574 219.629Z" fill="white"/>
</g>
<path d="M240.602 219.629C236.402 219.629 232.965 216.192 232.965 211.991C232.965 207.79 236.402 204.354 240.602 204.354C244.803 204.354 248.24 207.79 248.24 211.991C248.24 216.192 244.803 219.629 240.602 219.629Z" fill="white"/>
<path d="M216.927 219.629C212.726 219.629 209.289 216.192 209.289 211.991C209.289 207.79 212.726 204.354 216.927 204.354C221.127 204.354 224.564 207.79 224.564 211.991C224.564 216.192 221.127 219.629 216.927 219.629Z" fill="white"/>
<g opacity="0.999994">
<path d="M193.251 219.629C189.05 219.629 185.613 216.192 185.613 211.991C185.613 207.79 189.05 204.354 193.251 204.354C197.452 204.354 200.888 207.79 200.888 211.991C200.888 216.192 197.452 219.629 193.251 219.629Z" fill="white"/>
</g>
<path d="M169.574 219.629C165.373 219.629 161.937 216.192 161.937 211.991C161.937 207.79 165.373 204.354 169.574 204.354C173.775 204.354 177.212 207.79 177.212 211.991C177.212 216.192 173.775 219.629 169.574 219.629Z" fill="white"/>
<path d="M273.58 237.346C272.257 237.254 270.889 237.159 270.04 236.757C269.261 236.389 268.359 235.424 267.487 234.492C265.865 232.757 264.027 230.79 261.383 230.662C258.739 230.532 256.718 232.312 254.934 233.881C253.976 234.723 252.985 235.595 252.174 235.887C251.291 236.204 249.919 236.166 248.593 236.129C246.264 236.064 243.623 235.991 241.741 237.699C239.859 239.406 239.675 242.041 239.513 244.366C239.42 245.689 239.326 247.057 238.924 247.906C238.556 248.685 237.591 249.587 236.659 250.459C234.924 252.081 232.957 253.919 232.829 256.564C232.699 259.207 234.478 261.229 236.047 263.012C236.89 263.97 237.762 264.961 238.054 265.772C238.37 266.655 238.332 268.027 238.296 269.353C238.231 271.683 238.158 274.323 239.865 276.205C241.573 278.088 244.208 278.271 246.533 278.433C247.856 278.526 249.224 278.62 250.073 279.022C250.852 279.391 251.753 280.355 252.625 281.287C254.248 283.022 256.086 284.989 258.73 285.117C261.374 285.247 263.395 283.468 265.179 281.899C266.137 281.056 267.128 280.184 267.939 279.892C268.822 279.576 270.194 279.614 271.52 279.65C273.849 279.715 276.49 279.788 278.372 278.081C280.254 276.373 280.438 273.738 280.6 271.414C280.693 270.09 280.787 268.722 281.189 267.873C281.557 267.095 282.522 266.193 283.454 265.321C285.189 263.698 287.156 261.86 287.284 259.216C287.414 256.572 285.634 254.551 284.065 252.767C283.223 251.809 282.351 250.818 282.059 250.007C281.742 249.124 281.78 247.752 281.817 246.426C281.882 244.097 281.955 241.456 280.247 239.574C278.54 237.692 275.905 237.508 273.58 237.346Z" fill="url(#paint7_linear_3_3630)"/>
</g>
</g>
<defs>
<linearGradient id="paint0_linear_3_3630" x1="87.9337" y1="66.6356" x2="106.076" y2="84.7784" gradientUnits="userSpaceOnUse">
<stop stop-color="#FFE77B"/>
<stop offset="0.5" stop-color="#FFC141"/>
<stop offset="1" stop-color="#FF9B06"/>
</linearGradient>
<linearGradient id="paint1_linear_3_3630" x1="103.134" y1="191.157" x2="108.838" y2="196.861" gradientUnits="userSpaceOnUse">
<stop stop-color="#FFE77B"/>
<stop offset="0.5" stop-color="#FFC141"/>
<stop offset="1" stop-color="#FF9B06"/>
</linearGradient>
<linearGradient id="paint2_linear_3_3630" x1="291.291" y1="97.036" x2="307.516" y2="97.036" gradientUnits="userSpaceOnUse">
<stop stop-color="#FFE77B"/>
<stop offset="0.5" stop-color="#FFC141"/>
<stop offset="1" stop-color="#FF9B06"/>
</linearGradient>
<linearGradient id="paint3_linear_3_3630" x1="316.091" y1="300.879" x2="328.53" y2="313.318" gradientUnits="userSpaceOnUse">
<stop stop-color="#FFE77B"/>
<stop offset="0.5" stop-color="#FFC141"/>
<stop offset="1" stop-color="#FF9B06"/>
</linearGradient>
<linearGradient id="paint4_linear_3_3630" x1="53.0131" y1="266.236" x2="62.9219" y2="266.236" gradientUnits="userSpaceOnUse">
<stop stop-color="#FFE77B"/>
<stop offset="0.5" stop-color="#FFC141"/>
<stop offset="1" stop-color="#FF9B06"/>
</linearGradient>
<linearGradient id="paint5_linear_3_3630" x1="160.213" y1="163.958" x2="246.621" y2="250.366" gradientUnits="userSpaceOnUse">
<stop stop-color="#FFE77B"/>
<stop offset="0.5" stop-color="#FFC141"/>
<stop offset="1" stop-color="#FF9B06"/>
</linearGradient>
<linearGradient id="paint6_linear_3_3630" x1="241.813" y1="157.557" x2="173.612" y2="118.181" gradientUnits="userSpaceOnUse">
<stop stop-color="#FF9B06"/>
<stop offset="0.5" stop-color="#FFC141"/>
<stop offset="1" stop-color="#FFE77B"/>
</linearGradient>
<linearGradient id="paint7_linear_3_3630" x1="233.349" y1="256.575" x2="287.372" y2="259.206" gradientUnits="userSpaceOnUse">
<stop stop-color="#5DD99E"/>
<stop offset="0.49" stop-color="#3AD189"/>
<stop offset="0.99" stop-color="#17C974"/>
</linearGradient>
<clipPath id="clip0_3_3630">
<rect width="400" height="400" fill="white"/>
</clipPath>
</defs>
</svg>
